<?xml version="1.0" encoding="UTF-8" standalone="no"?>
<svg
   xmlns:osb="http://www.openswatchbook.org/uri/2009/osb"
   xmlns:dc="http://purl.org/dc/elements/1.1/"
   xmlns:cc="http://creativecommons.org/ns#"
   xmlns:rdf="http://www.w3.org/1999/02/22-rdf-syntax-ns#"
   xmlns:svg="http://www.w3.org/2000/svg"
   xmlns="http://www.w3.org/2000/svg"
   xmlns:sodipodi="http://sodipodi.sourceforge.net/DTD/sodipodi-0.dtd"
   xmlns:inkscape="http://www.inkscape.org/namespaces/inkscape"
   version="1.1"
   id="Layer_1"
   x="0px"
   y="0px"
   viewBox="0 0 64 64"
   enable-background="new 0 0 64 64"
   xml:space="preserve"
   style="zoom: 4;"
   sodipodi:docname="icon.svg"
   inkscape:export-filename="/Users/rich/dev/public/@release-flow/azure-pipelines-extension/tasks/ReleaseFlowGitVersionV0/icon.png"
   inkscape:export-xdpi="48.000004"
   inkscape:export-ydpi="48.000004"
   inkscape:version="1.0.1 (c497b03c, 2020-09-10)"><metadata
     id="metadata993"><rdf:RDF><cc:Work
         rdf:about=""><dc:format>image/svg+xml</dc:format><dc:type
           rdf:resource="http://purl.org/dc/dcmitype/StillImage" /><dc:title></dc:title></cc:Work></rdf:RDF></metadata><defs
     id="defs991"><marker
       style="overflow:visible;"
       id="Arrow1Lend"
       refX="0.0"
       refY="0.0"
       orient="auto"
       inkscape:stockid="Arrow1Lend"
       inkscape:isstock="true"><path
         transform="scale(0.8) rotate(180) translate(12.5,0)"
         style="fill-rule:evenodd;stroke:#000000;stroke-width:1.0pt;"
         d="M 0.0,0.0 L 5.0,-5.0 L -12.5,0.0 L 5.0,5.0 L 0.0,0.0 z "
         id="path3008" /></marker><marker
       style="overflow:visible"
       id="marker3503"
       refX="0.0"
       refY="0.0"
       orient="auto"
       inkscape:stockid="Arrow1Lstart"
       inkscape:isstock="true"><path
         transform="scale(0.8) translate(12.5,0)"
         style="fill-rule:evenodd;stroke:#000000;stroke-width:1.0pt"
         d="M 0.0,0.0 L 5.0,-5.0 L -12.5,0.0 L 5.0,5.0 L 0.0,0.0 z "
         id="path3501" /></marker><marker
       style="overflow:visible"
       id="marker3457"
       refX="0.0"
       refY="0.0"
       orient="auto"
       inkscape:stockid="Arrow1Lstart"
       inkscape:isstock="true"><path
         transform="scale(0.8) translate(12.5,0)"
         style="fill-rule:evenodd;stroke:#000000;stroke-width:1.0pt"
         d="M 0.0,0.0 L 5.0,-5.0 L -12.5,0.0 L 5.0,5.0 L 0.0,0.0 z "
         id="path3455" /></marker><marker
       style="overflow:visible"
       id="marker3417"
       refX="0.0"
       refY="0.0"
       orient="auto"
       inkscape:stockid="Arrow1Lstart"
       inkscape:isstock="true"><path
         transform="scale(0.8) translate(12.5,0)"
         style="fill-rule:evenodd;stroke:#000000;stroke-width:1.0pt"
         d="M 0.0,0.0 L 5.0,-5.0 L -12.5,0.0 L 5.0,5.0 L 0.0,0.0 z "
         id="path3415" /></marker><marker
       style="overflow:visible"
       id="marker3383"
       refX="0.0"
       refY="0.0"
       orient="auto"
       inkscape:stockid="Arrow1Lstart"
       inkscape:isstock="true"><path
         transform="scale(0.8) translate(12.5,0)"
         style="fill-rule:evenodd;stroke:#000000;stroke-width:1.0pt"
         d="M 0.0,0.0 L 5.0,-5.0 L -12.5,0.0 L 5.0,5.0 L 0.0,0.0 z "
         id="path3381" /></marker><marker
       style="overflow:visible"
       id="marker3355"
       refX="0.0"
       refY="0.0"
       orient="auto"
       inkscape:stockid="Arrow1Lstart"
       inkscape:isstock="true"><path
         transform="scale(0.8) translate(12.5,0)"
         style="fill-rule:evenodd;stroke:#000000;stroke-width:1.0pt"
         d="M 0.0,0.0 L 5.0,-5.0 L -12.5,0.0 L 5.0,5.0 L 0.0,0.0 z "
         id="path3353" /></marker><marker
       style="overflow:visible"
       id="marker3333"
       refX="0.0"
       refY="0.0"
       orient="auto"
       inkscape:stockid="Arrow1Lstart"
       inkscape:isstock="true"><path
         transform="scale(0.8) translate(12.5,0)"
         style="fill-rule:evenodd;stroke:#000000;stroke-width:1.0pt"
         d="M 0.0,0.0 L 5.0,-5.0 L -12.5,0.0 L 5.0,5.0 L 0.0,0.0 z "
         id="path3331" /></marker><marker
       style="overflow:visible"
       id="marker3277"
       refX="0.0"
       refY="0.0"
       orient="auto"
       inkscape:stockid="Arrow1Lstart"
       inkscape:isstock="true"><path
         transform="scale(0.8) translate(12.5,0)"
         style="fill-rule:evenodd;stroke:#8a0096;stroke-width:1pt;stroke-opacity:1;fill:#8a0096;fill-opacity:1"
         d="M 0.0,0.0 L 5.0,-5.0 L -12.5,0.0 L 5.0,5.0 L 0.0,0.0 z "
         id="path3275" /></marker><marker
       style="overflow:visible"
       id="Arrow1Lstart"
       refX="0.0"
       refY="0.0"
       orient="auto"
       inkscape:stockid="Arrow1Lstart"
       inkscape:isstock="true"><path
         transform="scale(0.8) translate(12.5,0)"
         style="fill-rule:evenodd;stroke:#8a0096;stroke-width:1pt;stroke-opacity:1;fill:#ffffff;fill-opacity:1"
         d="M 0.0,0.0 L 5.0,-5.0 L -12.5,0.0 L 5.0,5.0 L 0.0,0.0 z "
         id="path3005" /></marker><linearGradient
       id="linearGradient2950"
       osb:paint="solid"><stop
         style="stop-color:#ffffff;stop-opacity:1;"
         offset="0"
         id="stop2948" /></linearGradient></defs><sodipodi:namedview
     pagecolor="#ffffff"
     bordercolor="#666666"
     borderopacity="1"
     objecttolerance="10"
     gridtolerance="10"
     guidetolerance="10"
     inkscape:pageopacity="0"
     inkscape:pageshadow="2"
     inkscape:window-width="1591"
     inkscape:window-height="914"
     id="namedview989"
     showgrid="false"
     inkscape:zoom="11.013429"
     inkscape:cx="31.143798"
     inkscape:cy="34.049342"
     inkscape:window-x="0"
     inkscape:window-y="25"
     inkscape:window-maximized="0"
     inkscape:current-layer="layer2"
     inkscape:document-rotation="0" /><g
     id="g953" /><g
     id="g955" /><g
     id="g957" /><g
     id="g959" /><g
     id="g961" /><g
     id="g963" /><g
     id="g965" /><g
     id="g967" /><g
     id="g969" /><g
     id="g971" /><g
     id="g973" /><g
     id="g975" /><g
     id="g977" /><g
     id="g979" /><g
     id="g981" /><g
     inkscape:groupmode="layer"
     id="layer1"
     inkscape:label="Background"
     style="display:inline"><rect
       style="fill:#fac3ff;stroke-width:1.29385;stroke-dasharray:1.29385, 1.29385"
       id="rect982"
       width="64.103561"
       height="64.103561"
       x="0"
       y="0"
       ry="11.82718" /></g><g
     inkscape:groupmode="layer"
     id="layer2"
     inkscape:label="Rocket"
     style="display:inline"><path
       d="m 56.645835,13.047325 c 0,-1.94342 -0.561075,-3.4813678 -1.667254,-4.5702335 -4.440693,-4.3685793 -16.116147,0.2766651 -26.584722,10.5789155 -0.380386,0.374421 -0.728053,0.773544 -1.062366,1.182577 -0.109743,-0.04481 -0.236019,-0.08485 -0.381234,-0.118203 -3.014969,-0.695742 -12.691326,0.927404 -15.50822,12.0399 -0.07249,0.284828 0.04346,0.583264 0.289795,0.747518 0.119423,0.08039 0.257438,0.119875 0.395438,0.119875 0.145569,0 0.291208,-0.04424 0.414729,-0.132853 3.823367,-2.738598 6.890626,-3.840091 9.568171,-3.434619 -0.184779,0.33081 -0.372331,0.653459 -0.566024,0.961802 -0.173267,0.275967 -0.131151,0.633013 0.101413,0.861953 l 1.108786,1.091307 -2.727028,2.755357 c -0.133203,0.130831 -0.146318,0.544697 -0.146318,0.730095 0,0.185326 0.31643,0.691309 0.449633,0.822141 l 5.986485,5.627231 c 0.137998,0.135648 0.620948,0.507734 1.042972,0.495509 0,0 0.586215,-0.05773 0.724223,-0.193379 l 2.455805,-2.496986 1.272414,1.174632 c 0.136665,0.134182 0.316796,0.203746 0.498962,0.203746 0.127618,0 0.256017,-0.03412 0.370564,-0.103615 0.292055,-0.177862 0.595205,-0.350628 0.907117,-0.520605 0.459957,2.657027 -0.65421,5.705013 -3.472164,9.515939 -0.175249,0.237168 -0.181466,0.557374 -0.0159,0.800687 0.133202,0.196212 0.354736,0.30869 0.586586,0.30869 0.05661,0 0.113849,-0.0069 0.170442,-0.02045 11.264256,-2.765877 12.928695,-12.287257 12.234478,-15.256885 -0.04247,-0.18121 -0.09801,-0.323902 -0.158217,-0.450409 0.44907,-0.350416 0.886625,-0.716466 1.295498,-1.11887 7.542566,-7.422628 12.415935,-15.902103 12.415935,-21.600766 z M 22.767633,28.153564 c -2.756899,-0.573774 -5.786354,0.224192 -9.383737,2.485795 1.769367,-4.848225 4.992087,-7.138505 7.52053,-8.217183 1.895642,-0.808154 3.620841,-1.03437 4.724972,-1.03437 0.296085,0 0.546518,0.01632 0.744593,0.04159 z m 4.624002,13.29664 -5.989751,-5.708946 2.353283,-2.380331 5.135534,5.05344 0.808824,0.795802 z m 13.378171,0.675725 c -1.093103,2.5001 -3.421425,5.685683 -8.36447,7.432196 2.293838,-3.537261 3.10464,-6.516376 2.522931,-9.231109 l 6.83593,-3.551565 c 0.122815,0.917215 0.03314,2.999632 -0.994391,5.350478 z m -4.836128,-3.982855 c -1.242764,0.5908 -2.42633,1.152294 -3.512504,1.77505 l -9.385793,-9.23655 c 0.506874,-0.856999 0.97545,-1.78775 1.450033,-2.749134 l 2.869538,-5.349849 c 0.600577,-0.917982 1.265953,-1.779794 2.03676,-2.538546 9.577003,-9.425297 20.835676,-14.2694744 24.589015,-10.578915 0.830872,0.817712 1.25182,2.023105 1.25182,3.582195 0,5.264585 -4.822985,13.548544 -12.000509,20.612737 -1.999167,1.967215 -4.693247,3.246222 -7.29836,4.483012 z"
       id="path948"
       style="fill:#8a0096;fill-opacity:1;fill-rule:nonzero;stroke:#8a0096;stroke-width:1.15374;stroke-miterlimit:1.6;stroke-dasharray:none;stroke-opacity:1"
       sodipodi:nodetypes="cccccccsccccccsccscccsccccsccccscccsccccccccccccccccccccsccc" /><path
       d="m 41.371811,15.231965 c -0.88147,0.887421 -1.367226,2.068355 -1.367226,3.324898 0,1.257401 0.485756,2.438335 1.367226,3.325756 0.9087,0.914896 2.102198,1.372774 3.295619,1.372774 1.193497,0 2.386996,-0.457878 3.294922,-1.372774 0.881547,-0.887421 1.366462,-2.068355 1.366462,-3.325756 0,-1.256543 -0.484915,-2.437477 -1.366462,-3.324898 -1.815852,-1.829867 -4.773145,-1.829867 -6.590541,0 z m 5.499837,5.540791 c -1.216149,1.224451 -3.192975,1.224451 -4.409059,0 -0.586927,-0.591641 -0.911019,-1.378174 -0.911019,-2.215893 0,-0.836939 0.324092,-1.623472 0.911019,-2.215112 0.608044,-0.612225 1.406442,-0.917947 2.204841,-0.917947 0.798475,0 1.596101,0.305722 2.204218,0.917947 0.586859,0.59164 0.910181,1.378173 0.910181,2.215112 0,0.837719 -0.323322,1.624252 -0.910181,2.215893 z"
       id="path950"
       style="fill:#8a0096;fill-opacity:1;fill-rule:nonzero;stroke:#8a0096;stroke-width:0.38;stroke-miterlimit:1.60000002;stroke-dasharray:none;stroke-opacity:1" /><path
       style="fill:#ffffff;fill-opacity:1;fill-rule:nonzero;stroke:#8a0096;stroke-width:0.0272395;stroke-miterlimit:1.6;stroke-dasharray:none;stroke-opacity:1"
       d="m 34.049342,48.075081 c 0,-0.02639 0.116673,-0.281763 0.259273,-0.567489 0.364132,-0.729603 0.883923,-2.113249 1.116128,-2.971053 0.15721,-0.580758 0.203079,-1.043537 0.228792,-2.308324 l 0.03216,-1.581938 2.603635,-1.355632 c 1.431999,-0.745597 2.657329,-1.376235 2.722955,-1.401418 0.280279,-0.107554 0.0423,1.520495 -0.429079,2.935418 -0.578882,1.737599 -1.478449,3.213866 -2.798434,4.59247 -0.914237,0.954837 -1.671734,1.557359 -2.842764,2.261169 -0.701672,0.421717 -0.892667,0.506616 -0.892667,0.396797 z"
       id="path3325" /><path
       style="fill:#ffffff;fill-opacity:1;fill-rule:nonzero;stroke:#8a0096;stroke-width:0.0272395;stroke-miterlimit:1.6;stroke-dasharray:none;stroke-opacity:1"
       d="m 14.800114,28.99995 c 0,-0.138988 0.980596,-1.658041 1.448791,-2.244341 1.056234,-1.322673 2.72306,-2.686747 4.174291,-3.4161 0.747875,-0.375863 2.136844,-0.873314 2.911953,-1.042898 0.560134,-0.12255 1.997562,-0.321424 1.997562,-0.27637 0,0.0068 -0.644408,1.214548 -1.432018,2.683893 l -1.432017,2.671537 -1.31463,0.0067 c -1.968099,0.01008 -3.468373,0.362404 -5.436513,1.276704 -0.910736,0.423082 -0.917419,0.425565 -0.917419,0.340841 z"
       id="path3329" /><path
       style="fill:#ffffff;fill-opacity:1;fill-rule:nonzero;stroke:none;stroke-width:0.0345033;stroke-miterlimit:1.6;stroke-dasharray:none;stroke-opacity:1"
       d="m 28.220864,34.896254 c -2.36254,-2.321504 -4.307951,-4.254936 -4.323137,-4.296515 -0.07278,-0.199277 3.90018,-7.589 4.581833,-8.522224 0.641168,-0.877796 2.581915,-2.806712 4.334024,-4.307602 8.429313,-7.220713 17.267632,-10.6781974 20.506768,-8.0220952 0.869226,0.7127682 1.249394,1.7295552 1.249394,3.3415972 0,4.869605 -4.342377,12.515357 -10.890377,19.175013 -2.363479,2.40378 -3.168424,2.936375 -8.058448,5.331897 L 32.51639,39.11717 Z m 17.83959,-11.620962 c 2.298053,-0.674694 3.792597,-3.013411 3.445878,-5.392241 -0.296263,-2.032665 -1.669022,-3.585857 -3.607467,-4.081628 -0.896845,-0.229374 -1.553921,-0.229755 -2.446701,-0.0014 -0.891197,0.22793 -1.592593,0.625879 -2.23449,1.267776 -1.1933,1.193299 -1.699009,2.969516 -1.312343,4.609373 0.65138,2.762509 3.442975,4.39441 6.155123,3.598141 z"
       id="path3565" /><path
       style="fill:#ffffff;fill-opacity:1;fill-rule:nonzero;stroke:none;stroke-width:0.0345033;stroke-miterlimit:1.6;stroke-dasharray:none;stroke-opacity:1"
       d="m 24.890817,38.195855 c -1.36667,-1.306771 -2.475746,-2.416806 -2.464613,-2.466745 0.01113,-0.04994 0.314476,-0.39877 0.674096,-0.77518 l 0.653855,-0.684382 2.516314,2.455219 2.516313,2.45522 -0.705555,0.695907 -0.705556,0.695907 z"
       id="path3567" /><path
       style="fill:#f6ea4a;fill-opacity:1;fill-rule:nonzero;stroke:none;stroke-width:0.0345033;stroke-miterlimit:1.6;stroke-dasharray:none;stroke-opacity:1"
       d="m 43.64634,21.254022 c -1.359601,-0.545487 -2.137139,-2.069642 -1.74462,-3.41986 0.383509,-1.319223 1.450102,-2.142089 2.776562,-2.142089 1.127327,0 2.039814,0.581697 2.555421,1.629044 0.251905,0.511692 0.293915,0.692723 0.289059,1.245622 -0.0099,1.123047 -0.633735,2.106707 -1.652141,2.604945 -0.587468,0.287409 -1.618064,0.325559 -2.224281,0.08234 z"
       id="path3569" /></g><g
     inkscape:groupmode="layer"
     id="layer3"
     inkscape:label="Branch"><path
       stroke="#000000"
       id="path1"
       stroke-width="1.86483px"
       d="M 7.6127351,48.722954 C 11.428442,45.216929 17.521641,52.87766 21.10789,48.99836"
       fill="none"
       sodipodi:nodetypes="cc"
       style="stroke-width:2.565;stroke-miterlimit:4;stroke-dasharray:none" /><line
       stroke="#000000"
       y1="48.722954"
       id="line2"
       x1="7.6127353"
       stroke-width="1.86483px"
       y2="41.471855"
       x2="15.215298"
       style="stroke-width:2.565;stroke-miterlimit:4;stroke-dasharray:none" /><circle
       style="fill:#ffffff;fill-opacity:1;fill-rule:nonzero;stroke:#000000;stroke-width:1.67;stroke-miterlimit:0;stroke-dasharray:none;stroke-opacity:1"
       id="circle2956"
       r="2.0193188"
       cy="40.185909"
       cx="16.432005" /><circle
       style="fill:#ffffff;fill-opacity:1;fill-rule:nonzero;stroke:#000000;stroke-width:1.67;stroke-miterlimit:0;stroke-dasharray:none;stroke-opacity:1"
       id="circle2999"
       r="2.0193188"
       cy="47.398415"
       cx="22.671495" /><circle
       style="fill:#ffffff;fill-opacity:1;fill-rule:nonzero;stroke:#000000;stroke-width:1.67;stroke-miterlimit:0;stroke-dasharray:none;stroke-opacity:1"
       id="circle3001"
       r="2.0193188"
       cy="49.895458"
       cx="5.9093585" /></g></svg>
